<svg version="1.1" id="Layer_1" xmlns="http://www.w3.org/2000/svg" xmlns:xlink="http://www.w3.org/1999/xlink" x="0px" y="0px"
	 width="100%" viewBox="0 0 1000 1012" enable-background="new 0 0 1000 1012" xml:space="preserve">
<path fill="#000000" opacity="1.000000" stroke="none" 
	d="
M0.999997,428.000000 
	C1.000000,357.645782 1.000000,287.291534 1.468654,216.468658 
	C10.206258,216.000000 18.475208,216.000000 27.111488,216.000000 
	C27.111488,154.083389 27.111488,92.692726 27.111488,31.306578 
	C343.266296,31.306578 659.043091,31.306578 975.197632,31.306578 
	C975.197632,93.003075 975.197632,154.393738 975.197632,216.000000 
	C984.049255,216.000000 992.524597,216.000000 1001.000000,216.000000 
	C1001.000000,298.687561 1001.000000,381.375122 1000.687073,464.823547 
	C995.949219,457.526642 990.724487,449.885712 982.637268,445.348755 
	C972.031250,439.398712 960.802612,434.568970 950.023438,428.911346 
	C946.087158,426.845367 942.146240,424.278076 939.146057,421.063507 
	C935.062683,416.688385 934.636963,410.769684 937.318237,405.650085 
	C939.794312,400.922394 945.038818,399.460510 950.182434,399.036011 
	C960.752014,398.163635 970.338562,401.127045 979.492065,407.533691 
	C985.233215,399.914551 990.839722,392.473999 996.655212,384.756104 
	C994.630737,382.897125 993.058105,381.415192 991.437195,379.988129 
	C990.964661,379.572052 990.347595,379.323120 989.807739,378.980225 
	C974.060303,368.976685 957.468018,364.854156 938.612000,368.776093 
	C919.790405,372.690887 904.587402,387.461700 903.060730,407.061310 
	C901.153625,431.544373 912.645874,446.130829 934.318970,456.039764 
	C944.359009,460.630066 954.312378,465.455292 964.039490,470.669464 
	C970.922241,474.358917 971.498596,483.438629 966.368042,489.189972 
	C959.277893,497.138062 950.020020,497.468018 941.020264,495.236023 
	C932.806763,493.199036 925.111450,489.072357 916.684448,485.663025 
	C910.822388,492.846527 904.416382,500.696564 897.458557,509.222809 
	C903.045410,513.060303 907.776428,517.218506 913.235962,519.885559 
	C928.172058,527.182007 943.933594,529.631531 960.579529,527.096069 
	C979.065796,524.280151 992.427490,515.356079 999.179260,497.484467 
	C999.308472,497.142517 1000.372253,497.153595 1001.000000,497.000000 
	C1001.000000,549.687561 1001.000000,602.375122 1000.557129,655.531372 
	C988.487488,656.000061 976.860779,656.000061 965.371948,656.000061 
	C965.371948,658.386169 965.371948,660.115417 965.371948,662.004089 
	C967.067932,662.004089 968.406616,661.899597 969.724670,662.020874 
	C978.810669,662.856567 983.890442,668.431458 981.591858,675.718872 
	C974.441162,698.389404 967.002747,720.969116 959.299438,744.745789 
	C958.225464,742.233398 957.549805,740.791931 956.984131,739.308655 
	C946.669678,712.264709 936.403564,685.202209 925.961792,658.207642 
	C925.434326,656.843994 923.401733,655.214600 922.092896,655.234436 
	C920.725342,655.255127 918.646484,656.850464 918.143982,658.221375 
	C909.626831,681.458069 901.327515,704.774536 892.925964,728.053772 
	C891.271362,732.638306 889.390076,737.140991 887.256958,742.592041 
	C886.438293,740.418274 885.968323,739.249207 885.554688,738.060547 
	C878.280701,717.153259 870.937012,696.269836 863.781677,675.322021 
	C860.807007,666.613464 864.264709,662.060181 873.469666,662.001648 
	C875.238464,661.990417 877.007385,662.000000 879.045166,662.000000 
	C878.933838,659.598389 878.853455,657.863464 878.790405,656.502686 
	C862.049622,656.502686 845.867432,656.502686 829.344482,656.502686 
	C829.344482,657.889893 829.344482,659.636475 829.344482,661.717529 
	C836.975769,662.647278 839.602356,668.970764 841.862061,675.001770 
	C854.185669,707.893616 866.230347,740.890015 878.377747,773.868958 
	C880.260498,773.868958 881.893127,773.868958 883.421814,773.868958 
	C893.862183,744.462891 904.250305,715.203979 915.009399,684.900208 
	C918.325623,693.318237 921.194458,700.552979 924.027649,707.801636 
	C932.374268,729.156616 940.676575,750.529114 949.140137,771.837646 
	C949.537720,772.838623 951.331360,773.851746 952.458618,773.833923 
	C953.542542,773.816833 955.048157,772.695618 955.584900,771.655273 
	C956.691589,769.510132 957.290100,767.100464 958.073730,764.791443 
	C968.378235,734.426758 978.659058,704.054016 988.997192,673.700745 
	C990.998962,667.823486 994.497070,663.332642 1001.000000,662.000000 
	C1001.000000,707.020874 1001.000000,752.041809 1000.531372,797.531372 
	C991.793762,798.000000 983.524719,798.000000 974.888428,798.000000 
	C974.888428,859.916687 974.888428,921.307373 974.888428,982.693420 
	C658.733643,982.693420 342.956879,982.693420 26.802395,982.693420 
	C26.802395,920.996948 26.802395,859.606262 26.802395,798.000000 
	C17.950785,798.000000 9.475392,798.000000 1.000000,798.000000 
	C1.000000,789.979065 1.000000,781.958191 1.460787,773.468628 
	C19.548969,773.000000 37.176365,773.000000 55.051693,773.000000 
	C54.937237,770.586304 54.854954,768.851135 54.772694,767.116333 
	C41.398964,767.861206 37.980301,760.677734 37.986588,750.164734 
	C38.016182,700.691284 37.999817,651.217834 37.999851,601.744385 
	C37.999851,599.944702 37.999851,598.145081 37.999851,595.935974 
	C33.355713,596.677734 29.231071,597.753967 25.071590,597.911682 
	C17.058136,598.215576 9.024984,598.000122 1.000000,598.000000 
	C1.000000,555.645752 1.000000,513.291565 1.328575,470.173889 
	C2.109062,470.215973 2.708726,470.972992 2.991243,471.834076 
	C9.786061,492.542725 22.147875,508.608643 41.619312,519.000732 
	C59.376755,528.478088 78.331505,530.251587 97.605560,526.767578 
	C110.840347,524.375244 122.883659,518.484741 132.043427,506.941742 
	C132.043427,513.220276 132.043427,518.936218 132.043427,524.790161 
	C142.827377,524.790161 153.227127,524.790161 163.649200,524.790161 
	C163.649200,473.416504 163.649200,422.253448 163.649200,371.345367 
	C153.224564,371.345367 143.152512,371.345367 133.363129,371.345367 
	C132.931976,377.666534 132.525436,383.626770 132.124786,389.500580 
	C128.202042,385.835724 124.885124,381.911530 120.810570,379.076111 
	C105.001503,368.075043 87.484428,365.141296 68.488487,367.863434 
	C51.256641,370.332794 37.043999,378.390564 24.756943,389.948029 
	C14.252110,399.829132 7.245917,412.195160 2.961735,426.038940 
	C2.719974,426.820160 1.672476,427.352051 0.999997,428.000000 
M519.602661,527.000122 
	C545.976013,530.556763 570.405518,527.493896 590.138062,505.228424 
	C590.138062,512.610046 590.138062,518.789001 590.138062,524.638184 
	C601.128723,524.638184 611.536926,524.638184 621.652466,524.638184 
	C621.652466,429.216492 621.652466,334.156677 621.652466,239.349915 
	C610.895447,239.349915 600.487915,239.349915 589.664551,239.349915 
	C589.664551,290.010864 589.664551,340.322418 589.664551,391.239929 
	C583.994141,383.176025 574.288696,375.755829 567.627747,372.933075 
	C551.588318,366.136047 535.205017,365.284241 518.369995,368.985260 
	C499.466766,373.140991 483.978058,382.442566 472.824860,398.561279 
	C456.259796,422.501099 454.197815,448.523743 462.104980,475.724060 
	C466.453125,490.681427 474.609528,503.406342 487.346741,512.843872 
	C496.781891,519.834717 507.237335,524.547424 519.602661,527.000122 
M392.943878,519.573975 
	C398.372131,515.806458 404.362762,512.639160 409.132935,508.169312 
	C431.970551,486.769653 439.949585,460.334137 433.930115,429.800049 
	C430.075928,410.249329 419.899567,394.188812 403.836060,382.522797 
	C385.300629,369.061523 364.363373,364.471741 341.574097,367.933563 
	C317.976898,371.518036 299.492279,383.347809 286.204803,402.742065 
	C277.516388,415.423645 273.015259,429.724579 272.811066,445.546967 
	C272.592987,462.446014 275.930511,478.138611 285.093018,492.261993 
	C298.724213,513.273560 318.630859,525.005920 343.191132,527.783752 
	C359.998169,529.684692 376.758881,527.866699 392.943878,519.573975 
M852.995239,488.493011 
	C851.153870,486.410614 849.312561,484.328217 847.536804,482.319946 
	C820.082703,506.461212 781.568970,498.416199 767.347839,470.289124 
	C768.942688,469.531128 770.498962,468.675232 772.138245,468.030334 
	C787.482178,461.993378 802.846252,456.007507 818.193054,449.977600 
	C836.820862,442.658600 855.444885,435.329803 874.052185,427.958862 
	C877.307983,426.669159 882.076233,425.907440 883.205933,423.514099 
	C884.229858,421.344818 881.247986,417.279907 880.022705,414.054382 
	C875.399963,401.885315 867.685364,391.701752 857.854736,383.580902 
	C840.551697,369.287109 820.447083,364.620697 798.145874,367.872650 
	C782.738892,370.119324 769.310974,376.363953 758.077271,386.616943 
	C736.631653,406.190491 726.745911,430.349640 730.932556,459.752319 
	C734.185059,482.594269 745.802002,500.106964 764.060120,513.473816 
	C774.865112,521.384277 787.144287,526.596863 800.434326,527.818115 
	C817.145996,529.353577 833.801514,527.903748 849.349182,520.809021 
	C857.377258,517.145630 865.321655,513.057800 868.931091,508.804230 
	C863.497620,501.831909 858.496704,495.414642 852.995239,488.493011 
M208.000000,495.500000 
	C208.000000,505.264587 208.000000,515.029175 208.000000,524.708374 
	C218.984665,524.708374 229.390594,524.708374 239.711884,524.708374 
	C239.711884,429.350281 239.711884,334.283783 239.711884,239.291641 
	C229.015411,239.291641 218.609421,239.291641 208.257706,239.291641 
	C208.138748,239.894333 208.022888,240.207291 208.022842,240.520279 
	C208.009949,325.180176 208.005066,409.840088 208.000000,495.500000 
M399.046570,759.218689 
	C401.734314,762.817871 403.699402,767.550171 407.241760,769.809265 
	C419.097870,777.370422 432.054413,776.021545 444.102203,770.667053 
	C450.536804,767.807190 455.660675,761.998169 460.932770,757.867493 
	C461.205536,765.603638 465.341400,772.490417 471.730011,773.838013 
	C480.969452,775.786865 489.860291,774.936646 497.629486,768.854919 
	C499.233765,767.599182 502.530914,767.140503 500.273010,763.808228 
	C498.235535,760.801270 496.526428,763.250427 494.473572,763.898193 
	C491.489380,764.839844 487.704346,766.334045 485.356018,765.240479 
	C483.414154,764.336243 482.197876,760.044556 482.134735,757.220825 
	C481.570190,731.971741 481.518860,706.710938 480.919373,681.463013 
	C480.626007,669.107300 473.989441,659.144897 461.546051,655.378235 
	C444.551453,650.234009 428.151489,652.519470 412.870850,661.687927 
	C405.045197,666.383484 400.341827,673.968689 403.009521,683.570374 
	C404.341858,688.365845 408.317810,691.810120 413.084900,691.999268 
	C422.092133,692.356750 425.965302,690.426270 427.991272,684.569885 
	C430.716492,676.692139 427.906647,670.418518 419.306427,665.302063 
	C424.643768,659.303467 432.113129,659.485535 439.109894,658.409851 
	C450.416565,656.671692 459.927460,664.853027 459.995880,676.307800 
	C460.023743,680.971252 459.554657,685.687073 460.095245,690.286987 
	C461.047577,698.390320 457.240326,703.066040 450.234558,705.967957 
	C438.349396,710.890808 426.398712,715.665710 414.617065,720.825806 
	C399.746521,727.338806 393.468201,742.285706 399.046570,759.218689 
M698.000000,491.500000 
	C698.000000,451.408112 698.000000,411.316223 698.000000,371.286133 
	C686.692505,371.286133 675.953796,371.286133 665.283203,371.286133 
	C665.283203,422.639923 665.283203,473.707062 665.283203,524.713867 
	C676.307434,524.713867 687.046143,524.713867 698.000000,524.713867 
	C698.000000,513.786072 698.000000,503.143036 698.000000,491.500000 
M667.490234,298.006836 
	C661.324890,304.599030 659.140930,312.248749 663.007690,320.558899 
	C667.952087,331.185120 676.410278,334.672516 686.673340,332.785889 
	C693.927185,331.452393 702.510132,323.723663 702.263977,312.477081 
	C702.071838,303.701263 696.407288,295.504181 688.259705,292.883728 
	C680.776062,290.476776 673.830688,291.838379 667.490234,298.006836 
z"/>
<path fill="#FFFFFF" opacity="1.000000" stroke="none" 
	d="
M1001.000000,215.531342 
	C992.524597,216.000000 984.049255,216.000000 975.197632,216.000000 
	C975.197632,154.393738 975.197632,93.003075 975.197632,31.306578 
	C659.043091,31.306578 343.266296,31.306578 27.111488,31.306578 
	C27.111488,92.692726 27.111488,154.083389 27.111488,216.000000 
	C18.475208,216.000000 10.206258,216.000000 1.468654,216.000000 
	C1.000000,145.645767 1.000000,75.291542 1.453632,4.468657 
	C334.938171,4.000000 667.969116,4.000000 1001.000000,4.000000 
	C1001.000000,74.354225 1001.000000,144.708450 1001.000000,215.531342 
z"/>
<path fill="#FFFFFF" opacity="1.000000" stroke="none" 
	d="
M1.000000,798.468628 
	C9.475392,798.000000 17.950785,798.000000 26.802395,798.000000 
	C26.802395,859.606262 26.802395,920.996948 26.802395,982.693420 
	C342.956879,982.693420 658.733643,982.693420 974.888428,982.693420 
	C974.888428,921.307373 974.888428,859.916687 974.888428,798.000000 
	C983.524719,798.000000 991.793762,798.000000 1000.531372,798.000000 
	C1001.000000,868.354248 1001.000000,938.708435 1000.546387,1009.531372 
	C667.061829,1010.000000 334.030914,1010.000000 1.000000,1010.000000 
	C1.000000,939.645752 1.000000,869.291565 1.000000,798.468628 
z"/>
<path fill="#FFFFFF" opacity="1.000000" stroke="none" 
	d="
M0.999997,428.468658 
	C1.672476,427.352051 2.719974,426.820160 2.961735,426.038940 
	C7.245917,412.195160 14.252110,399.829132 24.756943,389.948029 
	C37.043999,378.390564 51.256641,370.332794 68.488487,367.863434 
	C87.484428,365.141296 105.001503,368.075043 120.810570,379.076111 
	C124.885124,381.911530 128.202042,385.835724 132.124786,389.500580 
	C132.525436,383.626770 132.931976,377.666534 133.363129,371.345367 
	C143.152512,371.345367 153.224564,371.345367 163.649200,371.345367 
	C163.649200,422.253448 163.649200,473.416504 163.649200,524.790161 
	C153.227127,524.790161 142.827377,524.790161 132.043427,524.790161 
	C132.043427,518.936218 132.043427,513.220276 132.043427,506.941742 
	C122.883659,518.484741 110.840347,524.375244 97.605560,526.767578 
	C78.331505,530.251587 59.376755,528.478088 41.619312,519.000732 
	C22.147875,508.608643 9.786061,492.542725 2.991243,471.834076 
	C2.708726,470.972992 2.109062,470.215973 1.328575,469.705261 
	C1.000000,456.312439 1.000000,442.624878 0.999997,428.468658 
M129.047882,463.567322 
	C132.089447,455.644440 132.477341,447.654053 131.143860,439.200684 
	C129.059494,425.987030 122.719833,415.765717 112.053001,408.006958 
	C94.878128,395.514374 67.894539,395.847870 51.222317,408.852539 
	C32.147045,423.731628 26.321402,450.694000 38.456654,471.502228 
	C49.429073,490.316559 66.550842,499.053925 88.842995,496.021637 
	C108.481842,493.350250 122.051117,483.103516 129.047882,463.567322 
z"/>
<path fill="#FFFFFF" opacity="1.000000" stroke="none" 
	d="
M1001.000000,496.531342 
	C1000.372253,497.153595 999.308472,497.142517 999.179260,497.484467 
	C992.427490,515.356079 979.065796,524.280151 960.579529,527.096069 
	C943.933594,529.631531 928.172058,527.182007 913.235962,519.885559 
	C907.776428,517.218506 903.045410,513.060303 897.458557,509.222809 
	C904.416382,500.696564 910.822388,492.846527 916.684448,485.663025 
	C925.111450,489.072357 932.806763,493.199036 941.020264,495.236023 
	C950.020020,497.468018 959.277893,497.138062 966.368042,489.189972 
	C971.498596,483.438629 970.922241,474.358917 964.039490,470.669464 
	C954.312378,465.455292 944.359009,460.630066 934.318970,456.039764 
	C912.645874,446.130829 901.153625,431.544373 903.060730,407.061310 
	C904.587402,387.461700 919.790405,372.690887 938.612000,368.776093 
	C957.468018,364.854156 974.060303,368.976685 989.807739,378.980225 
	C990.347595,379.323120 990.964661,379.572052 991.437195,379.988129 
	C993.058105,381.415192 994.630737,382.897125 996.655212,384.756104 
	C990.839722,392.473999 985.233215,399.914551 979.492065,407.533691 
	C970.338562,401.127045 960.752014,398.163635 950.182434,399.036011 
	C945.038818,399.460510 939.794312,400.922394 937.318237,405.650085 
	C934.636963,410.769684 935.062683,416.688385 939.146057,421.063507 
	C942.146240,424.278076 946.087158,426.845367 950.023438,428.911346 
	C960.802612,434.568970 972.031250,439.398712 982.637268,445.348755 
	C990.724487,449.885712 995.949219,457.526642 1000.687073,465.292206 
	C1001.000000,475.354218 1001.000000,485.708466 1001.000000,496.531342 
z"/>
<path fill="#89939E" opacity="1.000000" stroke="none" 
	d="
M1001.000000,661.571533 
	C994.497070,663.332642 990.998962,667.823486 988.997192,673.700745 
	C978.659058,704.054016 968.378235,734.426758 958.073730,764.791443 
	C957.290100,767.100464 956.691589,769.510132 955.584900,771.655273 
	C955.048157,772.695618 953.542542,773.816833 952.458618,773.833923 
	C951.331360,773.851746 949.537720,772.838623 949.140137,771.837646 
	C940.676575,750.529114 932.374268,729.156616 924.027649,707.801636 
	C921.194458,700.552979 918.325623,693.318237 915.009399,684.900208 
	C904.250305,715.203979 893.862183,744.462891 883.421814,773.868958 
	C881.893127,773.868958 880.260498,773.868958 878.377747,773.868958 
	C866.230347,740.890015 854.185669,707.893616 841.862061,675.001770 
	C839.602356,668.970764 836.975769,662.647278 829.344482,661.717529 
	C829.344482,659.636475 829.344482,657.889893 829.344482,656.502686 
	C845.867432,656.502686 862.049622,656.502686 878.790405,656.502686 
	C878.853455,657.863464 878.933838,659.598389 879.045166,662.000000 
	C877.007385,662.000000 875.238464,661.990417 873.469666,662.001648 
	C864.264709,662.060181 860.807007,666.613464 863.781677,675.322021 
	C870.937012,696.269836 878.280701,717.153259 885.554688,738.060547 
	C885.968323,739.249207 886.438293,740.418274 887.256958,742.592041 
	C889.390076,737.140991 891.271362,732.638306 892.925964,728.053772 
	C901.327515,704.774536 909.626831,681.458069 918.143982,658.221375 
	C918.646484,656.850464 920.725342,655.255127 922.092896,655.234436 
	C923.401733,655.214600 925.434326,656.843994 925.961792,658.207642 
	C936.403564,685.202209 946.669678,712.264709 956.984131,739.308655 
	C957.549805,740.791931 958.225464,742.233398 959.299438,744.745789 
	C967.002747,720.969116 974.441162,698.389404 981.591858,675.718872 
	C983.890442,668.431458 978.810669,662.856567 969.724670,662.020874 
	C968.406616,661.899597 967.067932,662.004089 965.371948,662.004089 
	C965.371948,660.115417 965.371948,658.386169 965.371948,656.000061 
	C976.860779,656.000061 988.487488,656.000061 1000.557129,656.000000 
	C1001.000000,657.714355 1001.000000,659.428711 1001.000000,661.571533 
z"/>
<path fill="#89939E" opacity="1.000000" stroke="none" 
	d="
M1.000000,598.428467 
	C9.024984,598.000122 17.058136,598.215576 25.071590,597.911682 
	C29.231071,597.753967 33.355713,596.677734 37.999851,595.935974 
	C37.999851,598.145081 37.999851,599.944702 37.999851,601.744385 
	C37.999817,651.217834 38.016182,700.691284 37.986588,750.164734 
	C37.980301,760.677734 41.398964,767.861206 54.772694,767.116333 
	C54.854954,768.851135 54.937237,770.586304 55.051693,773.000000 
	C37.176365,773.000000 19.548969,773.000000 1.460787,773.000000 
	C1.000000,771.285645 1.000000,769.571289 1.434384,767.428467 
	C12.626428,767.786255 16.816673,761.743347 16.870975,753.122803 
	C17.148628,709.045105 17.182913,664.963440 16.857506,620.886414 
	C16.785204,611.093201 12.693303,603.345276 1.000000,604.000000 
	C1.000000,602.285645 1.000000,600.571289 1.000000,598.428467 
z"/>
<path fill="#000000" opacity="1.000000" stroke="none" 
	d="
M1.000000,1010.500000 
	C334.030914,1010.000000 667.061829,1010.000000 1000.546387,1010.000000 
	C1000.951904,1011.654358 1001.621460,1013.871704 998.493408,1013.024292 
	C997.872314,1012.856018 997.166687,1013.000000 996.500000,1013.000000 
	C666.166687,1013.000000 335.833374,1013.003906 5.500122,1012.858765 
	C4.211103,1012.858154 0.872594,1015.328430 1.000000,1010.500000 
z"/>
<path fill="#000000" opacity="1.000000" stroke="none" 
	d="
M1001.000000,3.500001 
	C667.969116,4.000000 334.938171,4.000000 1.453632,4.000000 
	C1.048076,2.345619 0.378556,0.128286 3.506575,0.975730 
	C4.127656,1.143994 4.833333,1.000000 5.500000,1.000000 
	C335.833344,1.000000 666.166687,0.996095 996.499939,1.141279 
	C997.788879,1.141846 1001.127441,-1.328460 1001.000000,3.500001 
z"/>
<path fill="#000000" opacity="1.000000" stroke="none" 
	d="
M1.000000,604.468628 
	C12.693303,603.345276 16.785204,611.093201 16.857506,620.886414 
	C17.182913,664.963440 17.148628,709.045105 16.870975,753.122803 
	C16.816673,761.743347 12.626428,767.786255 1.434384,767.000000 
	C1.000000,712.979126 1.000000,658.958191 1.000000,604.468628 
z"/>
<path fill="#FFFFFF" opacity="1.000000" stroke="none" 
	d="
M519.159912,526.999023 
	C507.237335,524.547424 496.781891,519.834717 487.346741,512.843872 
	C474.609528,503.406342 466.453125,490.681427 462.104980,475.724060 
	C454.197815,448.523743 456.259796,422.501099 472.824860,398.561279 
	C483.978058,382.442566 499.466766,373.140991 518.369995,368.985260 
	C535.205017,365.284241 551.588318,366.136047 567.627747,372.933075 
	C574.288696,375.755829 583.994141,383.176025 589.664551,391.239929 
	C589.664551,340.322418 589.664551,290.010864 589.664551,239.349915 
	C600.487915,239.349915 610.895447,239.349915 621.652466,239.349915 
	C621.652466,334.156677 621.652466,429.216492 621.652466,524.638184 
	C611.536926,524.638184 601.128723,524.638184 590.138062,524.638184 
	C590.138062,518.789001 590.138062,512.610046 590.138062,505.228424 
	C570.405518,527.493896 545.976013,530.556763 519.159912,526.999023 
M587.581055,462.935242 
	C589.659851,455.185272 590.555847,447.538422 589.175354,439.365387 
	C586.894653,425.862915 580.592041,415.486664 569.354492,407.680145 
	C559.095886,400.553680 547.854309,398.190643 535.655701,398.990112 
	C520.865784,399.959381 508.743286,406.251282 500.096313,418.150757 
	C492.295715,428.885559 488.605560,440.942261 490.906860,454.556732 
	C492.536285,464.196289 495.862183,472.843933 502.544067,480.037354 
	C516.511292,495.073975 533.651184,499.988647 553.348938,494.908417 
	C570.042603,490.602966 581.838013,480.493073 587.581055,462.935242 
z"/>
<path fill="#FFFFFF" opacity="1.000000" stroke="none" 
	d="
M392.609772,519.773499 
	C376.758881,527.866699 359.998169,529.684692 343.191132,527.783752 
	C318.630859,525.005920 298.724213,513.273560 285.093018,492.261993 
	C275.930511,478.138611 272.592987,462.446014 272.811066,445.546967 
	C273.015259,429.724579 277.516388,415.423645 286.204803,402.742065 
	C299.492279,383.347809 317.976898,371.518036 341.574097,367.933563 
	C364.363373,364.471741 385.300629,369.061523 403.836060,382.522797 
	C419.899567,394.188812 430.075928,410.249329 433.930115,429.800049 
	C439.949585,460.334137 431.970551,486.769653 409.132935,508.169312 
	C404.362762,512.639160 398.372131,515.806458 392.609772,519.773499 
M367.158752,494.972992 
	C375.662659,492.004456 383.230621,487.725769 389.558594,481.054413 
	C407.272797,462.378937 407.927826,434.030304 389.880920,414.344025 
	C371.773651,394.591949 337.492523,393.008789 318.279510,413.970154 
	C300.377350,433.501343 300.045715,463.774811 319.082306,482.297516 
	C332.089386,494.953461 348.056610,500.118866 367.158752,494.972992 
z"/>
<path fill="#FFFFFF" opacity="1.000000" stroke="none" 
	d="
M853.245483,488.745209 
	C858.496704,495.414642 863.497620,501.831909 868.931091,508.804230 
	C865.321655,513.057800 857.377258,517.145630 849.349182,520.809021 
	C833.801514,527.903748 817.145996,529.353577 800.434326,527.818115 
	C787.144287,526.596863 774.865112,521.384277 764.060120,513.473816 
	C745.802002,500.106964 734.185059,482.594269 730.932556,459.752319 
	C726.745911,430.349640 736.631653,406.190491 758.077271,386.616943 
	C769.310974,376.363953 782.738892,370.119324 798.145874,367.872650 
	C820.447083,364.620697 840.551697,369.287109 857.854736,383.580902 
	C867.685364,391.701752 875.399963,401.885315 880.022705,414.054382 
	C881.247986,417.279907 884.229858,421.344818 883.205933,423.514099 
	C882.076233,425.907440 877.307983,426.669159 874.052185,427.958862 
	C855.444885,435.329803 836.820862,442.658600 818.193054,449.977600 
	C802.846252,456.007507 787.482178,461.993378 772.138245,468.030334 
	C770.498962,468.675232 768.942688,469.531128 767.347290,470.287933 
	C781.568970,498.416199 820.082703,506.461212 847.536804,482.319946 
	C849.312561,484.328217 851.153870,486.410614 853.245483,488.745209 
M783.355469,440.965668 
	C797.672058,434.979797 811.989563,428.996063 826.304810,423.006958 
	C831.974670,420.634857 837.639526,418.250793 843.369202,415.845947 
	C833.255310,397.483643 807.674011,396.125366 794.061829,401.488892 
	C772.084839,410.148346 760.229919,432.431946 762.563049,449.190704 
	C769.283386,446.452148 775.924194,443.746002 783.355469,440.965668 
z"/>
<path fill="#FFFFFF" opacity="1.000000" stroke="none" 
	d="
M208.000000,495.000000 
	C208.005066,409.840088 208.009949,325.180176 208.022842,240.520279 
	C208.022888,240.207291 208.138748,239.894333 208.257706,239.291641 
	C218.609421,239.291641 229.015411,239.291641 239.711884,239.291641 
	C239.711884,334.283783 239.711884,429.350281 239.711884,524.708374 
	C229.390594,524.708374 218.984665,524.708374 208.000000,524.708374 
	C208.000000,515.029175 208.000000,505.264587 208.000000,495.000000 
z"/>
<path fill="#89939E" opacity="1.000000" stroke="none" 
	d="
M398.961670,758.822571 
	C393.468201,742.285706 399.746521,727.338806 414.617065,720.825806 
	C426.398712,715.665710 438.349396,710.890808 450.234558,705.967957 
	C457.240326,703.066040 461.047577,698.390320 460.095245,690.286987 
	C459.554657,685.687073 460.023743,680.971252 459.995880,676.307800 
	C459.927460,664.853027 450.416565,656.671692 439.109894,658.409851 
	C432.113129,659.485535 424.643768,659.303467 419.306427,665.302063 
	C427.906647,670.418518 430.716492,676.692139 427.991272,684.569885 
	C425.965302,690.426270 422.092133,692.356750 413.084900,691.999268 
	C408.317810,691.810120 404.341858,688.365845 403.009521,683.570374 
	C400.341827,673.968689 405.045197,666.383484 412.870850,661.687927 
	C428.151489,652.519470 444.551453,650.234009 461.546051,655.378235 
	C473.989441,659.144897 480.626007,669.107300 480.919373,681.463013 
	C481.518860,706.710938 481.570190,731.971741 482.134735,757.220825 
	C482.197876,760.044556 483.414154,764.336243 485.356018,765.240479 
	C487.704346,766.334045 491.489380,764.839844 494.473572,763.898193 
	C496.526428,763.250427 498.235535,760.801270 500.273010,763.808228 
	C502.530914,767.140503 499.233765,767.599182 497.629486,768.854919 
	C489.860291,774.936646 480.969452,775.786865 471.730011,773.838013 
	C465.341400,772.490417 461.205536,765.603638 460.932770,757.867493 
	C455.660675,761.998169 450.536804,767.807190 444.102203,770.667053 
	C432.054413,776.021545 419.097870,777.370422 407.241760,769.809265 
	C403.699402,767.550171 401.734314,762.817871 398.961670,758.822571 
M459.997406,731.498047 
	C459.997406,723.564148 459.997406,715.630310 459.997406,707.325439 
	C455.421570,709.688721 451.301849,711.900330 447.107239,713.959412 
	C442.874817,716.036987 438.567963,717.962952 434.293793,719.955444 
	C425.786560,723.921326 420.282288,730.158264 418.161255,739.575317 
	C414.686249,755.003357 424.651733,766.332764 440.024811,763.993225 
	C450.968384,762.327759 459.997437,751.931580 459.997437,740.996338 
	C459.997437,738.163147 459.997406,735.329895 459.997406,731.498047 
z"/>
<path fill="#FFFFFF" opacity="1.000000" stroke="none" 
	d="
M698.000000,492.000000 
	C698.000000,503.143036 698.000000,513.786072 698.000000,524.713867 
	C687.046143,524.713867 676.307434,524.713867 665.283203,524.713867 
	C665.283203,473.707062 665.283203,422.639923 665.283203,371.286133 
	C675.953796,371.286133 686.692505,371.286133 698.000000,371.286133 
	C698.000000,411.316223 698.000000,451.408112 698.000000,492.000000 
z"/>
<path fill="#FFFFFF" opacity="1.000000" stroke="none" 
	d="
M667.752441,297.742004 
	C673.830688,291.838379 680.776062,290.476776 688.259705,292.883728 
	C696.407288,295.504181 702.071838,303.701263 702.263977,312.477081 
	C702.510132,323.723663 693.927185,331.452393 686.673340,332.785889 
	C676.410278,334.672516 667.952087,331.185120 663.007690,320.558899 
	C659.140930,312.248749 661.324890,304.599030 667.752441,297.742004 
z"/>
<path fill="#000000" opacity="1.000000" stroke="none" 
	d="
M129.024872,463.978119 
	C122.051117,483.103516 108.481842,493.350250 88.842995,496.021637 
	C66.550842,499.053925 49.429073,490.316559 38.456654,471.502228 
	C26.321402,450.694000 32.147045,423.731628 51.222317,408.852539 
	C67.894539,395.847870 94.878128,395.514374 112.053001,408.006958 
	C122.719833,415.765717 129.059494,425.987030 131.143860,439.200684 
	C132.477341,447.654053 132.089447,455.644440 129.024872,463.978119 
z"/>
<path fill="#000000" opacity="1.000000" stroke="none" 
	d="
M587.314453,463.253448 
	C581.838013,480.493073 570.042603,490.602966 553.348938,494.908417 
	C533.651184,499.988647 516.511292,495.073975 502.544067,480.037354 
	C495.862183,472.843933 492.536285,464.196289 490.906860,454.556732 
	C488.605560,440.942261 492.295715,428.885559 500.096313,418.150757 
	C508.743286,406.251282 520.865784,399.959381 535.655701,398.990112 
	C547.854309,398.190643 559.095886,400.553680 569.354492,407.680145 
	C580.592041,415.486664 586.894653,425.862915 589.175354,439.365387 
	C590.555847,447.538422 589.659851,455.185272 587.314453,463.253448 
z"/>
<path fill="#000000" opacity="1.000000" stroke="none" 
	d="
M366.736359,494.985718 
	C348.056610,500.118866 332.089386,494.953461 319.082306,482.297516 
	C300.045715,463.774811 300.377350,433.501343 318.279510,413.970154 
	C337.492523,393.008789 371.773651,394.591949 389.880920,414.344025 
	C407.927826,434.030304 407.272797,462.378937 389.558594,481.054413 
	C383.230621,487.725769 375.662659,492.004456 366.736359,494.985718 
z"/>
<path fill="#000000" opacity="1.000000" stroke="none" 
	d="
M782.960205,441.002747 
	C775.924194,443.746002 769.283386,446.452148 762.563049,449.190704 
	C760.229919,432.431946 772.084839,410.148346 794.061829,401.488892 
	C807.674011,396.125366 833.255310,397.483643 843.369202,415.845947 
	C837.639526,418.250793 831.974670,420.634857 826.304810,423.006958 
	C811.989563,428.996063 797.672058,434.979797 782.960205,441.002747 
z"/>
<path fill="#000000" opacity="1.000000" stroke="none" 
	d="
M459.997406,731.997375 
	C459.997406,735.329895 459.997437,738.163147 459.997437,740.996338 
	C459.997437,751.931580 450.968384,762.327759 440.024811,763.993225 
	C424.651733,766.332764 414.686249,755.003357 418.161255,739.575317 
	C420.282288,730.158264 425.786560,723.921326 434.293793,719.955444 
	C438.567963,717.962952 442.874817,716.036987 447.107239,713.959412 
	C451.301849,711.900330 455.421570,709.688721 459.997406,707.325439 
	C459.997406,715.630310 459.997406,723.564148 459.997406,731.997375 
z"/>
</svg>